<svg width="128" height="128" viewBox="0 0 128 128" fill="none" xmlns="http://www.w3.org/2000/svg">
<rect x="0.5" y="0.5" width="127" height="127" rx="16.5" fill="#E30613" stroke="white"/>
<mask id="mask0_48_452" style="mask-type:alpha" maskUnits="userSpaceOnUse" x="1" y="1" width="126" height="126">
<rect x="1" y="1" width="126" height="126" rx="16" fill="#7E878E"/>
</mask>
<g mask="url(#mask0_48_452)">
<path fill-rule="evenodd" clip-rule="evenodd" d="M70.8203 32.1749L78.9582 40.3127L75.8517 43.1145L70.8203 40.3127V32.1749ZM39.1857 77.8295L32.0715 70.7153H39.1857L41.1596 75.8639L39.1857 77.8295ZM128.052 128.082H81.8565L39.7971 86.7025L37.7908 83.1511L37.1034 82.1336H38.2288L45.3511 89.4769L50.4384 84.9723L56.9248 87.3497V94.6071H69.2616V87.3497L75.6208 84.9723L81.8565 89.4769L88.848 82.1336H89.2566L84.4545 76.9785L87.4997 70.0171H94.5812V58.3746H87.4997L84.4545 51.7732L89.4201 46.4921L84.4545 37.5971L128.173 81.3151V83.3399H128.052V128.082ZM64 73C68.9706 73 73 68.9706 73 64C73 59.0294 68.9706 55 64 55C59.0294 55 55 59.0294 55 64C55 68.9706 59.0294 73 64 73Z" fill="#B70B15"/>
<circle cx="64" cy="64" r="24" stroke="white" stroke-width="4"/>
<circle cx="64" cy="64" r="11.5" stroke="white" stroke-width="5"/>
<mask id="path-6-inside-1_48_452" fill="white">
<path d="M56 35C56 32.7909 57.7909 31 60 31H68C70.2091 31 72 32.7909 72 35V42H56V35Z"/>
</mask>
<path d="M52 35C52 30.5817 55.5817 27 60 27H68C72.4183 27 76 30.5817 76 35H68H60H52ZM72 42H56H72ZM52 42V35C52 30.5817 55.5817 27 60 27V35V42H52ZM68 27C72.4183 27 76 30.5817 76 35V42H68V35V27Z" fill="white" mask="url(#path-6-inside-1_48_452)"/>
<rect x="60" y="35" width="8" height="10" fill="#E30613"/>
<mask id="path-9-inside-2_48_452" fill="white">
<path d="M35 72C32.7909 72 31 70.2091 31 68V60C31 57.7909 32.7909 56 35 56H42V72H35Z"/>
</mask>
<path d="M35 76C30.5817 76 27 72.4183 27 68V60C27 55.5817 30.5817 52 35 52V60V68V76ZM42 56V72V56ZM42 76H35C30.5817 76 27 72.4183 27 68H35H42V76ZM27 60C27 55.5817 30.5817 52 35 52H42V60H35H27Z" fill="white" mask="url(#path-9-inside-2_48_452)"/>
<rect x="35" y="68" width="8" height="10" transform="rotate(-90 35 68)" fill="#E30613"/>
<mask id="path-12-inside-3_48_452" fill="white">
<path d="M72 93C72 95.2091 70.2091 97 68 97H60C57.7909 97 56 95.2091 56 93V86H72V93Z"/>
</mask>
<path d="M76 93C76 97.4183 72.4183 101 68 101H60C55.5817 101 52 97.4183 52 93H60H68H76ZM56 86H72H56ZM76 86V93C76 97.4183 72.4183 101 68 101V93V86H76ZM60 101C55.5817 101 52 97.4183 52 93V86H60V93V101Z" fill="white" mask="url(#path-12-inside-3_48_452)"/>
<rect x="68" y="93" width="8" height="10" transform="rotate(-180 68 93)" fill="#E30613"/>
<mask id="path-15-inside-4_48_452" fill="white">
<path d="M93 56C95.2091 56 97 57.7909 97 60V68C97 70.2091 95.2091 72 93 72H86V56H93Z"/>
</mask>
<path d="M93 52C97.4183 52 101 55.5817 101 60V68C101 72.4183 97.4183 76 93 76V68V60V52ZM86 72V56V72ZM86 52H93C97.4183 52 101 55.5817 101 60H93H86V52ZM101 68C101 72.4183 97.4183 76 93 76H86V68H93H101Z" fill="white" mask="url(#path-15-inside-4_48_452)"/>
<rect x="93" y="60" width="8" height="10" transform="rotate(90 93 60)" fill="#E30613"/>
<mask id="path-18-inside-5_48_452" fill="white">
<path d="M79.0711 37.8284C80.6332 36.2663 83.1658 36.2663 84.7279 37.8284L90.3848 43.4853C91.9469 45.0474 91.9469 47.58 90.3848 49.1421L85.435 54.0919L74.1213 42.7782L79.0711 37.8284Z"/>
</mask>
<path d="M76.2427 35C79.3668 31.8758 84.4322 31.8758 87.5564 35L93.2132 40.6569C96.3374 43.781 96.3374 48.8464 93.2132 51.9706L87.5564 46.3137L81.8995 40.6569L76.2427 35ZM85.435 54.0919L74.1213 42.7782L85.435 54.0919ZM71.2929 39.9497L76.2427 35C79.3668 31.8758 84.4322 31.8758 87.5564 35L81.8995 40.6569L76.9498 45.6066L71.2929 39.9497ZM93.2132 40.6569C96.3374 43.781 96.3374 48.8464 93.2132 51.9706L88.2635 56.9203L82.6066 51.2635L87.5564 46.3137L93.2132 40.6569Z" fill="white" mask="url(#path-18-inside-5_48_452)"/>
<rect x="81.8995" y="40.6569" width="8" height="10" transform="rotate(45 81.8995 40.6569)" fill="#E30613"/>
<mask id="path-21-inside-6_48_452" fill="white">
<path d="M37.8284 49.1421C36.2663 47.58 36.2663 45.0474 37.8284 43.4853L43.4853 37.8284C45.0474 36.2663 47.58 36.2663 49.1421 37.8284L54.0919 42.7782L42.7782 54.0919L37.8284 49.1421Z"/>
</mask>
<path d="M35 51.9706C31.8758 48.8464 31.8758 43.781 35 40.6569L40.6569 35C43.781 31.8758 48.8464 31.8758 51.9706 35L46.3137 40.6569L40.6569 46.3137L35 51.9706ZM54.0919 42.7782L42.7782 54.0919L54.0919 42.7782ZM39.9497 56.9203L35 51.9706C31.8758 48.8464 31.8758 43.781 35 40.6569L40.6569 46.3137L45.6066 51.2635L39.9497 56.9203ZM40.6569 35C43.781 31.8758 48.8464 31.8758 51.9706 35L56.9203 39.9497L51.2635 45.6066L46.3137 40.6569L40.6569 35Z" fill="white" mask="url(#path-21-inside-6_48_452)"/>
<rect x="40.6569" y="46.3137" width="8" height="10" transform="rotate(-45 40.6569 46.3137)" fill="#E30613"/>
<mask id="path-24-inside-7_48_452" fill="white">
<path d="M49.1421 90.3848C47.5801 91.9469 45.0474 91.9469 43.4853 90.3848L37.8284 84.7279C36.2663 83.1658 36.2663 80.6332 37.8284 79.0711L42.7782 74.1213L54.0919 85.435L49.1421 90.3848Z"/>
</mask>
<path d="M51.9706 93.2132C48.8464 96.3374 43.7811 96.3374 40.6569 93.2132L35 87.5563C31.8758 84.4322 31.8758 79.3668 35 76.2426L40.6569 81.8995L46.3137 87.5563L51.9706 93.2132ZM42.7782 74.1213L54.0919 85.435L42.7782 74.1213ZM56.9203 88.2635L51.9706 93.2132C48.8464 96.3374 43.7811 96.3374 40.6569 93.2132L46.3137 87.5563L51.2635 82.6066L56.9203 88.2635ZM35 87.5563C31.8758 84.4322 31.8758 79.3668 35 76.2426L39.9498 71.2929L45.6066 76.9497L40.6569 81.8995L35 87.5563Z" fill="white" mask="url(#path-24-inside-7_48_452)"/>
<rect x="46.3137" y="87.5564" width="8" height="10" transform="rotate(-135 46.3137 87.5564)" fill="#E30613"/>
<mask id="path-27-inside-8_48_452" fill="white">
<path d="M90.3848 79.0711C91.9469 80.6332 91.9469 83.1658 90.3848 84.7279L84.7279 90.3848C83.1658 91.9469 80.6332 91.9469 79.0711 90.3848L74.1213 85.435L85.435 74.1213L90.3848 79.0711Z"/>
</mask>
<path d="M93.2132 76.2426C96.3374 79.3668 96.3374 84.4322 93.2132 87.5564L87.5563 93.2132C84.4321 96.3374 79.3668 96.3374 76.2426 93.2132L81.8995 87.5564L87.5563 81.8995L93.2132 76.2426ZM74.1213 85.435L85.435 74.1213L74.1213 85.435ZM88.2634 71.2929L93.2132 76.2426C96.3374 79.3668 96.3374 84.4322 93.2132 87.5564L87.5563 81.8995L82.6066 76.9498L88.2634 71.2929ZM87.5563 93.2132C84.4321 96.3374 79.3668 96.3374 76.2426 93.2132L71.2929 88.2635L76.9497 82.6066L81.8995 87.5564L87.5563 93.2132Z" fill="white" mask="url(#path-27-inside-8_48_452)"/>
<rect x="87.5563" y="81.8995" width="8" height="10" transform="rotate(135 87.5563 81.8995)" fill="#E30613"/>
</g>
</svg>
