<svg width="128" height="128" viewBox="0 0 128 128" fill="none" xmlns="http://www.w3.org/2000/svg">
<rect x="0.5" y="0.5" width="127" height="127" rx="16.5" fill="#E30613" stroke="white"/>
<mask id="mask0_36_194" style="mask-type:alpha" maskUnits="userSpaceOnUse" x="1" y="1" width="126" height="126">
<rect x="1" y="1" width="126" height="126" rx="16" fill="#7E878E"/>
</mask>
<g mask="url(#mask0_36_194)">
<path fill-rule="evenodd" clip-rule="evenodd" d="M47.0039 31.0039H59L59.6875 31.2773L79.6198 51.2096L80.6797 52.2695V31.25L128.08 78.6504V96.467H128.173V128.133H83.2812L51.6148 96.467H52.7944V45.8939H47.0039V31.0039Z" fill="#B70B15"/>
<path d="M46 45H60V47C60 49.2091 58.2091 51 56 51H50C47.7909 51 46 49.2091 46 47V45Z" fill="white"/>
<path d="M48 32C48 31.4477 47.5523 31 47 31C46.4477 31 46 31.4477 46 32H48ZM46 45V46H48V45H46ZM46 32V45H48V32H46Z" fill="white"/>
<path d="M52 32C52 31.4477 51.5523 31 51 31C50.4477 31 50 31.4477 50 32H52ZM50 45V46H52V45H50ZM50 32V45H52V32H50Z" fill="white"/>
<path d="M56 32C56 31.4477 55.5523 31 55 31C54.4477 31 54 31.4477 54 32H56ZM54 45V46H56V45H54ZM54 32V45H56V32H54Z" fill="white"/>
<path d="M60 32C60 31.4477 59.5523 31 59 31C58.4477 31 58 31.4477 58 32H60ZM58 45V46H60V45H58ZM58 32V45H60V32H58Z" fill="white"/>
<path d="M51 95.0029C51 96.1075 51.8954 97.0029 53 97.0029C54.1046 97.0029 55 96.1075 55 95.0029H51ZM55 52V50H51V52H55ZM55 95.0029L55 52H51L51 95.0029H55Z" fill="white"/>
<path d="M77 95C77 96.1046 77.8954 97 79 97C80.1046 97 81 96.1046 81 95H77ZM81 62V60H77V62H81ZM81 95V62H77V95H81Z" fill="white"/>
<path d="M79.306 31.3391C79.9016 30.6531 81 31.0782 81 31.9867V61.0042C81 61.5565 80.5523 62.0042 80 62.0042H73C72.4477 62.0042 72 61.559 72 61.0068C72 59.1904 72 55.1214 72 50.7104C72 44.7513 73 40.7787 74.5 37.7992C75.4311 35.9497 77.7107 33.1766 79.306 31.3391Z" fill="white"/>
</g>
</svg>
