<svg width="128" height="128" viewBox="0 0 128 128" fill="none" xmlns="http://www.w3.org/2000/svg">
<rect x="0.5" y="0.5" width="127" height="127" rx="16.5" fill="#7E878E" stroke="white"/>
<mask id="mask0_39_257" style="mask-type:alpha" maskUnits="userSpaceOnUse" x="1" y="1" width="126" height="126">
<rect x="1" y="1" width="126" height="126" rx="16" fill="#7E878E"/>
</mask>
<g mask="url(#mask0_39_257)">
<path fill-rule="evenodd" clip-rule="evenodd" d="M79.1885 36.2324L84.0892 33.7821L92.4005 37.6817H94.8554L129.265 72.0909V129.402H78.2493V128.455H73.4388L34.7009 89.7168V73.9628L50.7523 65.177L48.9207 53.8822L78.1861 36.7667L78.2141 36.7196L78.5759 36.5387L79.1885 36.1804V36.2324Z" fill="#687077"/>
<rect x="29.4129" y="76.8324" width="50.9826" height="23.4913" rx="11.7456" transform="rotate(-30 29.4129 76.8324)" stroke="white" stroke-width="4"/>
<path d="M47.2666 68.8594C46.5119 67.7584 45.7909 66.3814 45.3906 65.293C47.5234 64.0639 52.5469 61.1641 52.5469 61.1641C52.7422 62.4516 53.4216 63.8627 54.247 64.8281C54.247 64.8281 49.4417 67.5914 47.2666 68.8594Z" fill="#687077"/>
<path d="M79.207 57.8945C79.207 57.8945 77.1497 59.0653 75.6015 59.9766L79.0117 67.2383C80.7294 66.2765 82.8125 65.0508 82.8125 65.0508C82.3628 61.6643 80.2886 58.8948 79.207 57.8945Z" fill="#687077"/>
<rect x="44.1516" y="55.6253" width="50.9826" height="23.4913" rx="11.7456" transform="rotate(-30 44.1516 55.6253)" stroke="white" stroke-width="4"/>
</g>
</svg>
