<svg width="128" height="128" viewBox="0 0 128 128" fill="none" xmlns="http://www.w3.org/2000/svg">
<rect x="0.5" y="0.5" width="127" height="127" rx="16.5" fill="#7E878E" stroke="white"/>
<mask id="mask0_40_301" style="mask-type:alpha" maskUnits="userSpaceOnUse" x="1" y="1" width="126" height="126">
<rect x="1" y="1" width="126" height="126" rx="16" fill="#7E878E"/>
</mask>
<g mask="url(#mask0_40_301)">
<path fill-rule="evenodd" clip-rule="evenodd" d="M128.057 58.2523L101.883 32.0781V84.4099L60.0378 72.6081L51.9678 94.8735L41.956 95.6507L74.3295 128.024H101.883V128.159H128.057V58.2523ZM28.8972 70.1611L43.8544 85.1183L48.8598 73.5263L28.8972 70.1611Z" fill="#687077"/>
<mask id="path-4-inside-1_40_301" fill="white">
<path d="M25 57C25 48.7157 31.7157 42 40 42H63V75H40C31.7157 75 25 68.2843 25 60V57Z"/>
</mask>
<path d="M21 57C21 46.5066 29.5066 38 40 38H63V46H40C33.9249 46 29 50.9249 29 57H21ZM63 79H40C29.5066 79 21 70.4934 21 60H29C29 66.0751 33.9249 71 40 71H63V79ZM40 79C29.5066 79 21 70.4934 21 60V57C21 46.5066 29.5066 38 40 38V46C33.9249 46 29 50.9249 29 57V60C29 66.0751 33.9249 71 40 71V79ZM63 42V75V42Z" fill="white" mask="url(#path-4-inside-1_40_301)"/>
<path d="M101.5 35.4891V81.5109C101.5 83.1236 99.8383 84.4234 98.0713 83.8734L62.3021 72.7397C61.1967 72.3956 60.5 71.4206 60.5 70.3772V46.6228C60.5 45.5794 61.1967 44.6044 62.3021 44.2603L98.0713 33.1266C99.8383 32.5766 101.5 33.8764 101.5 35.4891Z" stroke="white" stroke-width="4"/>
<path d="M50.7788 73H58.2981C59.0185 73 59.53 73.7018 59.3094 74.3876L53.1251 93.6124C52.8591 94.4393 52.0898 95 51.2212 95H44.9886C43.6323 95 42.6693 93.6787 43.0847 92.3876L48.8749 74.3876C49.1409 73.5607 49.9102 73 50.7788 73Z" stroke="white" stroke-width="4"/>
</g>
</svg>
