<svg width="128" height="128" viewBox="0 0 128 128" fill="none" xmlns="http://www.w3.org/2000/svg">
<rect x="0.5" y="0.5" width="127" height="127" rx="16.5" fill="#7E878E" stroke="white"/>
<mask id="mask0_35_127" style="mask-type:alpha" maskUnits="userSpaceOnUse" x="1" y="1" width="126" height="126">
<rect x="1" y="1" width="126" height="126" rx="16" fill="#7E878E"/>
</mask>
<g mask="url(#mask0_35_127)">
<path d="M58 128L25.5 95.5L102.5 38.5L128 64V128H58Z" fill="#687077"/>
<path d="M29 39H99C100.676 39 102 40.3396 102 41.9485V92.0515C102 93.6604 100.676 95 99 95H29C27.3236 95 26 93.6604 26 92.0515V41.9485C26 40.3396 27.3236 39 29 39Z" fill="#7E878E" stroke="white" stroke-width="4" stroke-linejoin="round"/>
<line x1="37" y1="33" x2="37" y2="45" stroke="white" stroke-width="4" stroke-linecap="round"/>
<line x1="93" y1="33" x2="93" y2="45" stroke="white" stroke-width="4" stroke-linecap="round"/>
<rect x="39" y="52" width="8" height="8" rx="2" fill="white"/>
<rect x="53" y="52" width="8" height="8" rx="2" fill="white"/>
<rect x="67" y="52" width="8" height="8" rx="2" fill="white"/>
<rect x="81" y="52" width="8" height="8" rx="2" fill="white"/>
<rect x="39" y="66" width="8" height="8" rx="2" fill="white"/>
<rect x="53" y="66" width="8" height="8" rx="2" fill="white"/>
<rect x="67" y="66" width="8" height="8" rx="2" fill="white"/>
<rect x="81" y="66" width="8" height="8" rx="2" fill="white"/>
<rect x="39" y="80" width="8" height="8" rx="2" fill="white"/>
<rect x="53" y="80" width="8" height="8" rx="2" fill="white"/>
<rect x="67" y="80" width="8" height="8" rx="2" fill="white"/>
<rect x="81" y="80" width="8" height="8" rx="2" fill="white"/>
</g>
</svg>
