<svg width="128" height="128" viewBox="0 0 128 128" fill="none" xmlns="http://www.w3.org/2000/svg">
<rect x="0.5" y="0.5" width="127" height="127" rx="16.5" fill="#E30613" stroke="white"/>
<mask id="mask0_43_383" style="mask-type:alpha" maskUnits="userSpaceOnUse" x="1" y="1" width="126" height="126">
<rect x="1" y="1" width="126" height="126" rx="16" fill="#7E878E"/>
</mask>
<g mask="url(#mask0_43_383)">
<path fill-rule="evenodd" clip-rule="evenodd" d="M87.7987 32.1518L128.024 72.3774V128.097H87.7987V128.073H72.4097L40.0872 95.7503V93.0156H87.7987V32.1518Z" fill="#B70B15"/>
<rect x="41" y="33" width="46" height="62" rx="2" stroke="white" stroke-width="4"/>
<line x1="50" y1="46" x2="78" y2="46" stroke="white" stroke-width="2" stroke-linecap="round"/>
<line x1="50" y1="54" x2="78" y2="54" stroke="white" stroke-width="2" stroke-linecap="round"/>
<line x1="50" y1="62" x2="78" y2="62" stroke="white" stroke-width="2" stroke-linecap="round"/>
<line x1="50" y1="70" x2="78" y2="70" stroke="white" stroke-width="2" stroke-linecap="round"/>
<circle cx="76" cy="86" r="6" fill="white"/>
<path d="M73 91H79V102L76 100.167L73 102V91Z" fill="white"/>
<line x1="72" y1="97" x2="72" y2="93" stroke="#E30613" stroke-width="2"/>
<line x1="80" y1="97" x2="80" y2="93" stroke="#E30613" stroke-width="2"/>
</g>
</svg>
